HIERARCHY
ROOT Hips
{
	OFFSET -3.958830 18.904000 13.208200
	CHANNELS 6 Xposition Yposition Zposition Zrotation Yrotation Xrotation 
	JOINT LHipJoint
	{
		OFFSET 0.000000 0.000000 0.000000
		CHANNELS 3 Zrotation Yrotation Xrotation
		JOINT LeftUpLeg
		{
			OFFSET 1.800000 -1.400000 0.085000
			CHANNELS 3 Zrotation Yrotation Xrotation
			JOINT LeftLeg
			{
				OFFSET 2.215000 -6.000000 0.000000
				CHANNELS 3 Zrotation Yrotation Xrotation
				JOINT LeftFoot
				{
					OFFSET 2.500000 -6.900000 0.000000
					CHANNELS 3 Zrotation Yrotation Xrotation
					JOINT LeftToeBase
					{
						OFFSET 0.200000 -0.500000 1.950000
						CHANNELS 3 Zrotation Yrotation Xrotation
						End Site
						{
							OFFSET 0.000000 0.000000 0.000000
						}
					}
				}
			}
		}
	}
	JOINT RHipJoint
	{
		OFFSET 0.000000 0.000000 0.000000
		CHANNELS 3 Zrotation Yrotation Xrotation
		JOINT RightUpLeg
		{
			OFFSET -1.800000 -1.400000 0.085000
			CHANNELS 3 Zrotation Yrotation Xrotation
			JOINT RightLeg
			{
				OFFSET -2.215000 -6.000000 0.000000
				CHANNELS 3 Zrotation Yrotation Xrotation
				JOINT RightFoot
				{
					OFFSET -2.500000 -6.900000 0.000000
					CHANNELS 3 Zrotation Yrotation Xrotation
					JOINT RightToeBase
					{
						OFFSET -0.200000 -0.500000 1.950000
						CHANNELS 3 Zrotation Yrotation Xrotation
						End Site
						{
							OFFSET 0.000000 0.000000 0.000000
						}
					}
				}
			}
		}
	}
	JOINT LowerBack
	{
		OFFSET 0.000000 0.000000 0.000000
		CHANNELS 3 Zrotation Yrotation Xrotation
		JOINT Spine
		{
			OFFSET -0.087000 1.940000 -0.288900
			CHANNELS 3 Zrotation Yrotation Xrotation
			JOINT Spine1
			{
				OFFSET 0.000000 1.950000 0.060000
				CHANNELS 3 Zrotation Yrotation Xrotation
				JOINT Neck
				{
					OFFSET 0.000000 0.000000 0.000000
					CHANNELS 3 Zrotation Yrotation Xrotation
					JOINT Neck1
					{
						OFFSET 0.000000 1.600000 0.340000
						CHANNELS 3 Zrotation Yrotation Xrotation
						JOINT Head
						{
							OFFSET 0.000000 1.667000 -0.240000
							CHANNELS 3 Zrotation Yrotation Xrotation
							End Site
							{
								OFFSET 0.000000 0.000000 0.000000
							}
						}
					}
				}
				JOINT LeftShoulder
				{
					OFFSET 0.000000 0.000000 0.000000
					CHANNELS 3 Zrotation Yrotation Xrotation
					JOINT LeftArm
					{
						OFFSET 2.700000 1.550000 -0.730000
						CHANNELS 3 Zrotation Yrotation Xrotation
						JOINT LeftForeArm
						{
							OFFSET 5.450000 0.000000 0.000000
							CHANNELS 3 Zrotation Yrotation Xrotation
							JOINT LeftHand
							{
								OFFSET 3.450000 0.000000 0.000000
								CHANNELS 3 Zrotation Yrotation Xrotation
								JOINT LeftHandIndex1
								{
									OFFSET 0.750000 0.000000 0.000000
									CHANNELS 3 Zrotation Yrotation Xrotation
									End Site
									{
										OFFSET 0.000000 0.000000 0.000000
									}
								}
							}
						}
					}
				}
				JOINT RightShoulder
				{
					OFFSET 0.000000 0.000000 0.000000
					CHANNELS 3 Zrotation Yrotation Xrotation
					JOINT RightArm
					{
						OFFSET -2.700000 1.550000 -0.730000
						CHANNELS 3 Zrotation Yrotation Xrotation
						JOINT RightForeArm
						{
							OFFSET -5.450000 0.000000 0.000000
							CHANNELS 3 Zrotation Yrotation Xrotation
							JOINT RightHand
							{
								OFFSET -3.450000 0.000000 0.000000
								CHANNELS 3 Zrotation Yrotation Xrotation
								JOINT RightHandIndex1
								{
									OFFSET -0.750000 0.000000 0.000000
									CHANNELS 3 Zrotation Yrotation Xrotation
									End Site
									{
										OFFSET 0.000000 0.000000 0.000000
									}
								}
							}
						}
					}
				}
			}
		}
	}
}
MOTION
Frames: 10
Frame Time: 0.016667
0.255140 17.665700 -4.959970 -2.138089 10.910095 -1.069173 -15.133250 13.558368 1.829478 23.266088 0.019453 -4.023984 -0.194927 7.372948 19.925198 0.104498 5.675870 2.616399 -0.072210 -0.072060 -0.094950 18.246718 -10.255974 3.604776 -17.621835 3.311323 -20.669540 30.618261 -17.584223 30.367927 -0.872083 -7.905274 1.526072 0.021560 0.349550 0.131990 -3.777504 -1.997092 -7.712847 8.367105 -1.422732 13.927154 6.548009 -5.735766 18.358048 -2.779176 0.623635 -12.911449 -1.702698 -0.714733 45.659711 -6.465990 1.796310 4.130540 14.506652 -19.613657 3.856783 22.520132 -11.974548 -6.208095 53.936130 -24.935428 -10.460519 -4.366398 3.216831 -0.052220 0.301100 -0.127070 0.070380 -8.007943 19.544334 8.471763 12.153572 24.799751 -7.527889 -100.010857 18.483517 -31.352514 2.259298 -1.920677 -0.108950 0.164180 0.137810 0.045180 
0.211570 17.666350 -4.873300 -2.399666 12.241379 -1.733199 -15.080273 13.403609 1.720817 24.432255 0.640246 -7.200804 0.310193 8.231776 24.973518 0.141268 6.111866 2.407695 -0.107110 -0.121160 -0.094590 18.322192 -10.359484 3.625557 -18.445012 3.788632 -18.913730 31.927473 -17.632735 29.418346 -0.892417 -8.016248 1.485703 -0.002450 0.352650 0.139560 -3.991361 -1.503264 -7.715476 8.610456 -1.251604 13.755827 5.797563 -5.723014 18.577380 -3.191901 3.481163 -13.132016 4.634709 -2.147753 47.645271 -6.150370 3.420680 6.566860 15.135610 -20.594364 3.514920 25.898192 -11.197602 -8.065332 67.277383 -17.616631 -10.581983 -4.499431 3.219935 -0.057780 0.327840 -0.136930 0.058830 -7.795903 18.264383 9.239475 22.802976 27.833024 -3.982098 -84.762401 29.445905 -34.484768 2.173916 -1.679005 -0.124420 0.127630 0.136500 0.026850 
0.151310 17.681660 -4.787680 -2.008425 12.515486 -2.695859 -15.052770 13.322015 1.670385 24.122875 1.366161 -10.248982 1.518968 9.145924 31.647151 0.216828 6.814351 2.113784 -0.120350 -0.152350 -0.076460 18.365308 -10.455625 3.641951 -18.915531 4.478261 -17.060735 32.564882 -17.504921 29.031188 -0.914939 -8.098722 1.451188 -0.013860 0.342880 0.143370 -4.110654 -1.158215 -7.762331 8.719976 -0.669227 15.127843 4.356279 -4.879597 18.617145 -3.380592 5.169283 -13.131209 8.385165 -3.679793 48.041352 -6.078510 3.748020 7.091100 14.666816 -21.465323 3.565102 29.816268 -9.698305 -9.468473 79.542823 -8.965199 -7.933697 -4.545517 3.232575 -0.039180 0.331560 -0.136690 0.036920 -7.011058 18.030288 9.565353 29.923556 29.072505 -2.026773 -66.826131 39.512408 -30.710921 2.016167 -1.351775 -0.138980 0.117090 0.146960 0.002930 
0.082410 17.703220 -4.698040 -1.122936 12.762635 -3.355368 -15.066648 13.197150 1.854322 23.026534 1.518278 -14.108846 2.329362 10.430939 39.645807 0.411395 7.895429 1.702492 -0.156130 -0.198670 -0.098210 18.364186 -10.485995 3.588971 -19.312262 4.826453 -15.609114 32.275670 -17.342164 29.065285 -0.912654 -8.111360 1.445724 -0.047970 0.345620 0.137690 -4.098555 -0.994431 -7.911384 8.139888 -0.027598 17.061200 3.745677 -3.702467 18.010462 -3.874989 6.256520 -13.574427 10.916272 -4.601604 48.699268 -4.729460 3.571530 7.901190 13.467652 -22.864069 4.196478 31.276260 -7.093528 -10.539467 92.592628 -0.808446 -3.262924 -4.559143 3.286272 -0.016080 0.320740 -0.136240 0.017250 -5.013877 18.788367 9.799509 36.134988 29.219420 -2.201396 -52.311741 43.940184 -24.947859 1.948019 -1.202165 -0.147690 0.115030 0.174890 -0.002800 
0.033240 17.717090 -4.589460 -0.296357 12.087951 -3.781661 -15.047416 12.907237 2.189797 21.835621 1.079323 -17.448228 2.020210 12.186024 47.122500 0.652404 9.159817 1.269632 -0.139590 -0.183910 -0.074530 18.408312 -10.515743 3.480597 -19.537154 4.974591 -14.905121 31.224152 -17.447050 30.165548 -0.931746 -8.165938 1.428639 -0.037390 0.333530 0.118070 -4.170028 -0.689063 -8.075848 8.419057 0.462205 19.008976 3.015228 -2.129910 17.219127 -4.406228 6.847103 -13.429083 12.237302 -5.197473 48.305169 -3.366490 3.235360 6.755390 11.587338 -22.649657 4.037002 30.320824 -6.340315 -11.610375 104.249411 6.195100 2.894273 -4.491523 3.352969 0.021190 0.295240 -0.120220 0.011590 -2.212505 18.284079 9.711513 42.978460 27.826120 -4.025726 -44.347757 50.009711 -23.667060 1.881510 -1.064149 -0.162880 0.142970 0.171070 -0.016640 
-0.006500 17.719510 -4.501930 1.167057 11.717921 -4.036031 -14.995283 12.465147 2.666912 19.949307 -0.240216 -20.707817 0.545498 14.471396 54.362336 0.937385 10.550821 0.817090 -0.113670 -0.160540 -0.046190 18.483761 -10.587379 3.325041 -20.316862 4.663355 -14.582326 29.564217 -17.753577 31.741120 -0.951238 -8.251960 1.381803 -0.021270 0.298460 0.107230 -4.334091 -0.217446 -8.278925 9.187454 0.666769 21.349330 1.592897 -0.392115 16.145467 -4.725577 6.975175 -13.041200 12.606863 -5.469252 47.770839 -2.180950 3.057230 4.780270 8.900414 -21.396764 3.715480 26.722184 -5.557939 -12.128757 111.292816 7.724700 4.405915 -4.353892 3.425621 0.074410 0.257440 -0.093930 -0.005620 0.992460 17.079900 9.487447 49.422316 24.920532 -7.365469 -38.953839 56.219420 -23.947842 1.844625 -0.981896 -0.172310 0.154580 0.172890 -0.040790 
-0.032740 17.735540 -4.402030 2.423994 11.050059 -4.157090 -14.946822 11.887199 3.295589 18.853761 -1.750717 -23.356824 -3.528296 18.377104 59.703411 1.269802 12.056904 0.339334 -0.106260 -0.177290 0.000690 18.563057 -10.611021 3.138722 -20.970481 4.274220 -14.188490 28.074501 -18.101194 33.082491 -0.976175 -8.305727 1.335379 -0.037550 0.231920 0.105010 -4.487630 0.333771 -8.537755 10.268593 0.865028 22.892665 -0.112887 1.142351 14.660416 -4.286519 7.037418 -13.108863 13.514338 -5.984658 50.295541 -1.557570 3.651640 3.689070 5.579964 -20.207744 4.070701 19.756227 -3.903113 -11.889061 114.616604 4.895128 0.431717 -4.179016 3.448016 0.162130 0.204210 -0.047540 -0.052640 3.357630 16.035553 9.215947 54.671905 21.948816 -9.393800 -30.158890 55.562093 -19.519195 1.922149 -1.067716 -0.182420 0.143390 0.190780 -0.088300 
-0.042370 17.730340 -4.301180 3.545910 10.859181 -4.236110 -14.859835 11.208958 3.871331 17.680946 -3.373236 -25.856345 -7.916778 22.439222 63.458135 1.560318 13.402097 -0.069719 -0.042210 -0.128620 0.079410 18.697693 -10.688736 2.949967 -21.744791 3.831790 -14.034166 26.548795 -18.603520 34.762985 -1.023322 -8.436784 1.250332 0.002740 0.154100 0.106930 -4.785939 1.164207 -8.723351 12.571118 1.375652 23.705855 -2.701920 2.376077 13.803491 -3.272953 7.491248 -12.398277 15.185420 -7.361993 51.481118 -0.963490 3.454720 1.279960 2.615064 -17.491567 3.785294 12.956029 -4.427854 -10.423580 112.090889 -4.523620 -11.834528 -3.986493 3.324726 0.241400 0.149690 0.001770 -0.085030 4.336222 13.310852 8.243202 59.463962 20.436792 -9.189678 -27.331636 50.851549 -16.564273 1.979977 -1.121050 -0.187980 0.138550 0.183670 -0.138160 
-0.030840 17.713830 -4.191270 4.188449 10.445855 -4.079083 -14.795966 10.529946 4.512963 17.109118 -4.952855 -28.627406 -13.798497 27.096361 64.895911 1.875636 14.561047 -0.388345 0.018500 -0.058280 0.142480 18.817341 -10.739538 2.697628 -21.843197 3.299206 -14.003132 24.309400 -18.745707 36.465852 -1.058337 -8.470329 1.213835 0.037570 0.082610 0.113110 -5.029970 1.945727 -8.871286 15.197039 2.545960 23.042133 -4.514026 3.603969 13.536762 -2.016617 8.259268 -12.319479 17.655101 -9.351771 52.477097 -0.829010 3.360010 -0.634940 1.654724 -14.997333 4.011551 6.002202 -5.720688 -8.202911 107.689228 -18.860076 -28.296563 -3.844380 3.114887 0.295220 0.105390 0.062590 -0.098110 2.725762 10.590464 7.627137 64.470427 19.160803 -7.840272 -27.437777 43.876092 -14.341408 2.046925 -1.174705 -0.171870 0.131880 0.159910 -0.165260 
-0.021190 17.706360 -4.097020 4.685614 9.864661 -4.259501 -14.798814 10.147582 5.089146 16.463338 -6.355482 -30.943099 -20.232777 30.971803 63.755322 2.142441 15.211869 -0.527030 0.056310 -0.001970 0.177550 18.838815 -10.731862 2.442106 -21.479914 2.899903 -13.593904 21.639120 -18.512946 38.323605 -1.082082 -8.433408 1.238400 0.043310 0.034550 0.101500 -5.046039 2.183520 -9.009173 16.826558 3.303200 23.767550 -4.357546 4.425232 13.025967 -1.432239 8.200485 -12.541174 17.889083 -10.424920 53.835151 -0.572040 2.907780 -2.025990 0.883495 -12.578169 4.577246 0.711937 -4.027606 -5.991302 104.363730 -35.435248 -44.921999 -3.713391 2.817502 0.332050 0.059750 0.117680 -0.093620 2.177296 8.699036 7.162247 64.940760 16.900790 -8.564114 -28.559036 42.512031 -13.819750 2.066317 -1.154007 -0.148310 0.145850 0.130570 -0.165820 
